<?xml version="1.0" encoding="UTF-8" standalone="no"?>
<!DOCTYPE svg PUBLIC "-//W3C//DTD SVG 1.1//EN"
 "http://www.w3.org/Graphics/SVG/1.1/DTD/svg11.dtd">
<!-- Generated by graphviz version 2.40.1 (20161225.0304)
 -->
<!-- Title: models_diagram Pages: 1 -->
<svg width="447pt" height="517pt"
 viewBox="0.00 0.00 447.00 517.00" xmlns="http://www.w3.org/2000/svg" xmlns:xlink="http://www.w3.org/1999/xlink">
<g id="graph0" class="graph" transform="scale(1 1) rotate(0) translate(36 481)">
<title>models_diagram</title>
<polygon fill="#ffffff" stroke="transparent" points="-36,36 -36,-481 411,-481 411,36 -36,36"/>
<!-- Answer -->
<g id="node1" class="node">
<title>Answer</title>
<polygon fill="#add8e6" stroke="transparent" points=".3903,-249.7564 .3903,-271.7564 86.3903,-271.7564 86.3903,-249.7564 .3903,-249.7564"/>
<polygon fill="none" stroke="#000000" points=".3903,-249.7564 .3903,-271.7564 86.3903,-271.7564 86.3903,-249.7564 .3903,-249.7564"/>
<text text-anchor="start" x="27.8428" y="-257.7564" font-family="Times,serif" font-size="10.00" fill="#000000">Answer</text>
<polygon fill="none" stroke="#000000" points=".3903,-227.7564 .3903,-249.7564 86.3903,-249.7564 86.3903,-227.7564 .3903,-227.7564"/>
<text text-anchor="start" x="5.3903" y="-235.7564" font-family="Times,serif" font-size="10.00" fill="#000000">id: NUMBER</text>
<polygon fill="none" stroke="#000000" points=".3903,-205.7564 .3903,-227.7564 86.3903,-227.7564 86.3903,-205.7564 .3903,-205.7564"/>
<text text-anchor="start" x="5.2063" y="-213.7564" font-family="Times,serif" font-size="10.00" fill="#000000">answer: NUMBER</text>
<polygon fill="none" stroke="#000000" points=".3903,-183.7564 .3903,-205.7564 86.3903,-205.7564 86.3903,-183.7564 .3903,-183.7564"/>
<text text-anchor="start" x="5.3903" y="-191.7564" font-family="Times,serif" font-size="10.00" fill="#000000">title: STRING</text>
</g>
<!-- QuestionAnswer -->
<g id="node3" class="node">
<title>QuestionAnswer</title>
<polygon fill="#add8e6" stroke="transparent" points="127.7811,-281.1044 127.7811,-303.1044 227.7811,-303.1044 227.7811,-281.1044 127.7811,-281.1044"/>
<polygon fill="none" stroke="#000000" points="127.7811,-281.1044 127.7811,-303.1044 227.7811,-303.1044 227.7811,-281.1044 127.7811,-281.1044"/>
<text text-anchor="start" x="144.1811" y="-289.1044" font-family="Times,serif" font-size="10.00" fill="#000000">QuestionAnswer</text>
<polygon fill="none" stroke="#000000" points="127.7811,-259.1044 127.7811,-281.1044 227.7811,-281.1044 227.7811,-259.1044 127.7811,-259.1044"/>
<text text-anchor="start" x="132.7811" y="-267.1044" font-family="Times,serif" font-size="10.00" fill="#000000">userId: NUMBER</text>
<polygon fill="none" stroke="#000000" points="127.7811,-237.1044 127.7811,-259.1044 227.7811,-259.1044 227.7811,-237.1044 127.7811,-237.1044"/>
<text text-anchor="start" x="132.6471" y="-245.1044" font-family="Times,serif" font-size="10.00" fill="#000000">questionId: NUMBER</text>
<polygon fill="none" stroke="#000000" points="127.7811,-215.1044 127.7811,-237.1044 227.7811,-237.1044 227.7811,-215.1044 127.7811,-215.1044"/>
<text text-anchor="start" x="132.7811" y="-223.1044" font-family="Times,serif" font-size="10.00" fill="#000000">answerId: NUMBER</text>
<polygon fill="none" stroke="#000000" points="127.7811,-193.1044 127.7811,-215.1044 227.7811,-215.1044 227.7811,-193.1044 127.7811,-193.1044"/>
<text text-anchor="start" x="132.7811" y="-201.1044" font-family="Times,serif" font-size="10.00" fill="#000000">createdAt: DATE</text>
<polygon fill="none" stroke="#000000" points="127.7811,-171.1044 127.7811,-193.1044 227.7811,-193.1044 227.7811,-171.1044 127.7811,-171.1044"/>
<text text-anchor="start" x="132.7811" y="-179.1044" font-family="Times,serif" font-size="10.00" fill="#000000">updatedAt: DATE</text>
</g>
<!-- Answer&#45;&gt;QuestionAnswer -->
<g id="edge1" class="edge">
<title>Answer&#45;&gt;QuestionAnswer</title>
<path fill="none" stroke="#000000" stroke-width=".75" d="M86.6522,-230.7656C97.7603,-231.5383 109.8722,-232.3808 121.5322,-233.1918"/>
<polygon fill="#000000" stroke="#000000" stroke-width=".75" points="121.5952,-233.1961 127.3933,-236.306 124.5879,-233.4043 127.5807,-233.6125 127.5807,-233.6125 127.5807,-233.6125 124.5879,-233.4043 127.7681,-230.9191 121.5952,-233.1961 121.5952,-233.1961"/>
</g>
<!-- Permission -->
<g id="node2" class="node">
<title>Permission</title>
<polygon fill="#add8e6" stroke="transparent" points="223.4048,-410.4019 223.4048,-432.4019 289.4048,-432.4019 289.4048,-410.4019 223.4048,-410.4019"/>
<polygon fill="none" stroke="#000000" points="223.4048,-410.4019 223.4048,-432.4019 289.4048,-432.4019 289.4048,-410.4019 223.4048,-410.4019"/>
<text text-anchor="start" x="234.1838" y="-418.4019" font-family="Times,serif" font-size="10.00" fill="#000000">Permission</text>
<polygon fill="none" stroke="#000000" points="223.4048,-388.4019 223.4048,-410.4019 289.4048,-410.4019 289.4048,-388.4019 223.4048,-388.4019"/>
<text text-anchor="start" x="228.4048" y="-396.4019" font-family="Times,serif" font-size="10.00" fill="#000000">id: NUMBER</text>
<polygon fill="none" stroke="#000000" points="223.4048,-366.4019 223.4048,-388.4019 289.4048,-388.4019 289.4048,-366.4019 223.4048,-366.4019"/>
<text text-anchor="start" x="227.9358" y="-374.4019" font-family="Times,serif" font-size="10.00" fill="#000000">title: STRING</text>
</g>
<!-- RolePermission -->
<g id="node6" class="node">
<title>RolePermission</title>
<polygon fill="#add8e6" stroke="transparent" points="265.0873,-323.4183 265.0873,-345.4183 375.0873,-345.4183 375.0873,-323.4183 265.0873,-323.4183"/>
<polygon fill="none" stroke="#000000" points="265.0873,-323.4183 265.0873,-345.4183 375.0873,-345.4183 375.0873,-323.4183 265.0873,-323.4183"/>
<text text-anchor="start" x="288.4228" y="-331.4183" font-family="Times,serif" font-size="10.00" fill="#000000">RolePermission</text>
<polygon fill="none" stroke="#000000" points="265.0873,-301.4183 265.0873,-323.4183 375.0873,-323.4183 375.0873,-301.4183 265.0873,-301.4183"/>
<text text-anchor="start" x="270.0873" y="-309.4183" font-family="Times,serif" font-size="10.00" fill="#000000">roleId: NUMBER</text>
<polygon fill="none" stroke="#000000" points="265.0873,-279.4183 265.0873,-301.4183 375.0873,-301.4183 375.0873,-279.4183 265.0873,-279.4183"/>
<text text-anchor="start" x="269.9548" y="-287.4183" font-family="Times,serif" font-size="10.00" fill="#000000">permissionId: NUMBER</text>
</g>
<!-- Permission&#45;&gt;RolePermission -->
<g id="edge2" class="edge">
<title>Permission&#45;&gt;RolePermission</title>
<path fill="none" stroke="#000000" stroke-width=".75" d="M280.844,-366.0205C284.5269,-360.99 288.3497,-355.7684 292.1002,-350.6457"/>
<polygon fill="#000000" stroke="#000000" stroke-width=".75" points="292.2742,-350.408 297.9972,-347.1617 294.0464,-347.9874 295.8186,-345.5667 295.8186,-345.5667 295.8186,-345.5667 294.0464,-347.9874 293.6401,-343.9717 292.2742,-350.408 292.2742,-350.408"/>
</g>
<!-- Question -->
<g id="node4" class="node">
<title>Question</title>
<polygon fill="#add8e6" stroke="transparent" points="30.0304,-422.7001 30.0304,-444.7001 118.0304,-444.7001 118.0304,-422.7001 30.0304,-422.7001"/>
<polygon fill="none" stroke="#000000" points="30.0304,-422.7001 30.0304,-444.7001 118.0304,-444.7001 118.0304,-422.7001 30.0304,-422.7001"/>
<text text-anchor="start" x="55.9779" y="-430.7001" font-family="Times,serif" font-size="10.00" fill="#000000">Question</text>
<polygon fill="none" stroke="#000000" points="30.0304,-400.7001 30.0304,-422.7001 118.0304,-422.7001 118.0304,-400.7001 30.0304,-400.7001"/>
<text text-anchor="start" x="35.0304" y="-408.7001" font-family="Times,serif" font-size="10.00" fill="#000000">id: NUMBER</text>
<polygon fill="none" stroke="#000000" points="30.0304,-378.7001 30.0304,-400.7001 118.0304,-400.7001 118.0304,-378.7001 30.0304,-378.7001"/>
<text text-anchor="start" x="35.0304" y="-386.7001" font-family="Times,serif" font-size="10.00" fill="#000000">title: STRING</text>
<polygon fill="none" stroke="#000000" points="30.0304,-356.7001 30.0304,-378.7001 118.0304,-378.7001 118.0304,-356.7001 30.0304,-356.7001"/>
<text text-anchor="start" x="35.0064" y="-364.7001" font-family="Times,serif" font-size="10.00" fill="#000000">priority: NUMBER</text>
<polygon fill="none" stroke="#000000" points="30.0304,-334.7001 30.0304,-356.7001 118.0304,-356.7001 118.0304,-334.7001 30.0304,-334.7001"/>
<text text-anchor="start" x="35.0304" y="-342.7001" font-family="Times,serif" font-size="10.00" fill="#000000">createdAt: DATE</text>
<polygon fill="none" stroke="#000000" points="30.0304,-312.7001 30.0304,-334.7001 118.0304,-334.7001 118.0304,-312.7001 30.0304,-312.7001"/>
<text text-anchor="start" x="35.0304" y="-320.7001" font-family="Times,serif" font-size="10.00" fill="#000000">updatedAt: DATE</text>
</g>
<!-- Question&#45;&gt;QuestionAnswer -->
<g id="edge3" class="edge">
<title>Question&#45;&gt;QuestionAnswer</title>
<path fill="none" stroke="#000000" stroke-width=".75" d="M118.331,-318.2401C120.7165,-314.9844 123.1238,-311.6989 125.5322,-308.412"/>
<polygon fill="#000000" stroke="#000000" stroke-width=".75" points="125.7685,-308.0896 131.4927,-304.8456 127.5416,-305.6696 129.3148,-303.2497 129.3148,-303.2497 129.3148,-303.2497 127.5416,-305.6696 127.1369,-301.6539 125.7685,-308.0896 125.7685,-308.0896"/>
</g>
<!-- Role -->
<g id="node5" class="node">
<title>Role</title>
<polygon fill="#add8e6" stroke="transparent" points="277.6965,-204.2628 277.6965,-226.2628 350.6965,-226.2628 350.6965,-204.2628 277.6965,-204.2628"/>
<polygon fill="none" stroke="#000000" points="277.6965,-204.2628 277.6965,-226.2628 350.6965,-226.2628 350.6965,-204.2628 277.6965,-204.2628"/>
<text text-anchor="start" x="304.753" y="-212.2628" font-family="Times,serif" font-size="10.00" fill="#000000">Role</text>
<polygon fill="none" stroke="#000000" points="277.6965,-182.2628 277.6965,-204.2628 350.6965,-204.2628 350.6965,-182.2628 277.6965,-182.2628"/>
<text text-anchor="start" x="282.6965" y="-190.2628" font-family="Times,serif" font-size="10.00" fill="#000000">id: NUMBER</text>
<polygon fill="none" stroke="#000000" points="277.6965,-160.2628 277.6965,-182.2628 350.6965,-182.2628 350.6965,-160.2628 277.6965,-160.2628"/>
<text text-anchor="start" x="282.6765" y="-168.2628" font-family="Times,serif" font-size="10.00" fill="#000000">name: STRING</text>
</g>
<!-- Role&#45;&gt;RolePermission -->
<g id="edge5" class="edge">
<title>Role&#45;&gt;RolePermission</title>
<path fill="none" stroke="#000000" stroke-width=".75" d="M315.4767,-226.4542C316.2523,-240.9152 317.1673,-257.9752 317.9768,-273.0695"/>
<polygon fill="#000000" stroke="#000000" stroke-width=".75" points="317.9952,-273.4135 315.6205,-279.5495 318.1559,-276.4092 318.3166,-279.4049 318.3166,-279.4049 318.3166,-279.4049 318.1559,-276.4092 321.0127,-279.2602 317.9952,-273.4135 317.9952,-273.4135"/>
</g>
<!-- UserRole -->
<g id="node8" class="node">
<title>UserRole</title>
<polygon fill="#add8e6" stroke="transparent" points="235.118,-91.7879 235.118,-113.7879 318.118,-113.7879 318.118,-91.7879 235.118,-91.7879"/>
<polygon fill="none" stroke="#000000" points="235.118,-91.7879 235.118,-113.7879 318.118,-113.7879 318.118,-91.7879 235.118,-91.7879"/>
<text text-anchor="start" x="257.7365" y="-99.7879" font-family="Times,serif" font-size="10.00" fill="#000000">UserRole</text>
<polygon fill="none" stroke="#000000" points="235.118,-69.7879 235.118,-91.7879 318.118,-91.7879 318.118,-69.7879 235.118,-69.7879"/>
<text text-anchor="start" x="240.0985" y="-77.7879" font-family="Times,serif" font-size="10.00" fill="#000000">userId: NUMBER</text>
<polygon fill="none" stroke="#000000" points="235.118,-47.7879 235.118,-69.7879 318.118,-69.7879 318.118,-47.7879 235.118,-47.7879"/>
<text text-anchor="start" x="240.118" y="-55.7879" font-family="Times,serif" font-size="10.00" fill="#000000">roleId: NUMBER</text>
</g>
<!-- Role&#45;&gt;UserRole -->
<g id="edge4" class="edge">
<title>Role&#45;&gt;UserRole</title>
<path fill="none" stroke="#000000" stroke-width=".75" d="M302.625,-160.1249C298.4195,-147.5376 293.5897,-133.0816 289.2146,-119.9867"/>
<polygon fill="#000000" stroke="#000000" stroke-width=".75" points="289.1417,-119.7683 289.8011,-113.2219 288.191,-116.9229 287.2403,-114.0775 287.2403,-114.0775 287.2403,-114.0775 288.191,-116.9229 284.6794,-114.9331 289.1417,-119.7683 289.1417,-119.7683"/>
</g>
<!-- User -->
<g id="node7" class="node">
<title>User</title>
<polygon fill="#add8e6" stroke="transparent" points="40.4327,-153.8442 40.4327,-175.8442 126.4327,-175.8442 126.4327,-153.8442 40.4327,-153.8442"/>
<polygon fill="none" stroke="#000000" points="40.4327,-153.8442 40.4327,-175.8442 126.4327,-175.8442 126.4327,-153.8442 40.4327,-153.8442"/>
<text text-anchor="start" x="73.9947" y="-161.8442" font-family="Times,serif" font-size="10.00" fill="#000000">User</text>
<polygon fill="none" stroke="#000000" points="40.4327,-131.8442 40.4327,-153.8442 126.4327,-153.8442 126.4327,-131.8442 40.4327,-131.8442"/>
<text text-anchor="start" x="45.4327" y="-139.8442" font-family="Times,serif" font-size="10.00" fill="#000000">id: NUMBER</text>
<polygon fill="none" stroke="#000000" points="40.4327,-109.8442 40.4327,-131.8442 126.4327,-131.8442 126.4327,-109.8442 40.4327,-109.8442"/>
<text text-anchor="start" x="45.4327" y="-117.8442" font-family="Times,serif" font-size="10.00" fill="#000000">name: STRING</text>
<polygon fill="none" stroke="#000000" points="40.4327,-87.8442 40.4327,-109.8442 126.4327,-109.8442 126.4327,-87.8442 40.4327,-87.8442"/>
<text text-anchor="start" x="45.4327" y="-95.8442" font-family="Times,serif" font-size="10.00" fill="#000000">gender: STRING</text>
<polygon fill="none" stroke="#000000" points="40.4327,-65.8442 40.4327,-87.8442 126.4327,-87.8442 126.4327,-65.8442 40.4327,-65.8442"/>
<text text-anchor="start" x="44.9682" y="-73.8442" font-family="Times,serif" font-size="10.00" fill="#000000">postcode: STRING</text>
<polygon fill="none" stroke="#000000" points="40.4327,-43.8442 40.4327,-65.8442 126.4327,-65.8442 126.4327,-43.8442 40.4327,-43.8442"/>
<text text-anchor="start" x="45.4327" y="-51.8442" font-family="Times,serif" font-size="10.00" fill="#000000">dob: DATE</text>
<polygon fill="none" stroke="#000000" points="40.4327,-21.8442 40.4327,-43.8442 126.4327,-43.8442 126.4327,-21.8442 40.4327,-21.8442"/>
<text text-anchor="start" x="45.4327" y="-29.8442" font-family="Times,serif" font-size="10.00" fill="#000000">createdAt: DATE</text>
<polygon fill="none" stroke="#000000" points="40.4327,.1558 40.4327,-21.8442 126.4327,-21.8442 126.4327,.1558 40.4327,.1558"/>
<text text-anchor="start" x="45.4327" y="-7.8442" font-family="Times,serif" font-size="10.00" fill="#000000">updatedAt: DATE</text>
</g>
<!-- User&#45;&gt;QuestionAnswer -->
<g id="edge7" class="edge">
<title>User&#45;&gt;QuestionAnswer</title>
<path fill="none" stroke="#000000" stroke-width=".75" d="M126.4655,-155.9225C128.5067,-159.1517 130.5584,-162.3975 132.605,-165.6352"/>
<polygon fill="#000000" stroke="#000000" stroke-width=".75" points="132.6088,-165.6414 133.5325,-172.1558 134.2118,-168.1772 135.8147,-170.7131 135.8147,-170.7131 135.8147,-170.7131 134.2118,-168.1772 138.097,-169.2704 132.6088,-165.6414 132.6088,-165.6414"/>
</g>
<!-- User&#45;&gt;UserRole -->
<g id="edge6" class="edge">
<title>User&#45;&gt;UserRole</title>
<path fill="none" stroke="#000000" stroke-width=".75" d="M126.6751,-86.2606C156.8415,-85.1559 197.1089,-83.6812 228.2439,-82.541"/>
<polygon fill="#000000" stroke="#000000" stroke-width=".75" points="228.3475,-82.5373 234.4423,-85.0159 231.3454,-82.4275 234.3434,-82.3177 234.3434,-82.3177 234.3434,-82.3177 231.3454,-82.4275 234.2446,-79.6195 228.3475,-82.5373 228.3475,-82.5373"/>
</g>
</g>
</svg>
